<svg xmlns="http://www.w3.org/2000/svg" version="1.1" baseProfile="tiny" x="0" y="0" width="60" height="67" viewBox="-0.22 -0.09 60 67" xml:space="preserve"><rect x="0.81" y="52.25" fill="#FFFFFF" stroke="#000000" stroke-width="1.42" stroke-miterlimit="10" width="58.32" height="14.11"/><rect x="0.81" y="24.02" fill="#FFFFFF" stroke="#000000" stroke-width="1.42" stroke-miterlimit="10" width="58.32" height="14.11"/><rect x="0.81" y="38.14" fill="#FFFFFF" stroke="#000000" stroke-width="1.42" stroke-miterlimit="10" width="58.32" height="14.11"/><rect x="22.16" y="54.38" fill="none" stroke="#000000" stroke-width="1.42" stroke-miterlimit="10" width="5.31" height="11.99"/><rect x="27.31" y="54.38" fill="none" stroke="#000000" stroke-width="1.42" stroke-miterlimit="10" width="5.31" height="11.99"/><rect x="43.08" y="54.38" fill="none" stroke="#000000" stroke-width="1.42" stroke-miterlimit="10" width="5.31" height="11.99"/><rect x="4.74" y="54.38" fill="none" stroke="#000000" stroke-width="1.42" stroke-miterlimit="10" width="10.29" height="9.71"/><rect x="51.45" y="56.34" fill="none" stroke="#000000" stroke-width="1.42" stroke-miterlimit="10" width="5.15" height="4.85"/><rect x="0.81" y="26.52" fill="none" stroke="#000000" stroke-width="1.42" stroke-miterlimit="10" width="16.47" height="8.76"/><rect x="22.89" y="26.52" fill="none" stroke="#000000" stroke-width="1.42" stroke-miterlimit="10" width="36.24" height="8.76"/><rect x="17.28" y="26.52" fill="none" stroke="#000000" stroke-width="1.42" stroke-miterlimit="10" width="5.61" height="8.76"/><polygon fill="none" stroke="#000000" stroke-width="1.42" stroke-miterlimit="10" points="1.62 16.63 6.88 16.63 6.88 14.21 4.25 5.36 1.62 14.21 "/><path fill="none" stroke="#000000" stroke-width="1.42" stroke-miterlimit="10" d="M24.16 52.08l-0.06-5.77c0 0-0.29-7.5 6.42-7.5 6.71 0 6.45 7.06 6.45 7.06v6.4M37.04 52.08l-0.06-5.77c0 0-0.29-7.5 6.42-7.5 6.71 0 6.45 7.06 6.45 7.06v6.4M49.91 52.08c-0.06-5.63-0.29-15.9 8.83-12.88M11.29 52.08l-0.06-5.77c0 0-0.29-7.5 6.42-7.5 6.71 0 6.45 7.06 6.45 7.06v6.4M0.56 40.51c2.31-2.93 6.81-2.27 9.06 0.42 2.47 2.97 1.64 7.79 1.57 11.34"/><rect x="1.82" y="16.08" fill="none" stroke="#000000" stroke-width="1.42" stroke-miterlimit="10" width="4.85" height="7.38"/><rect x="16.45" y="0.71" fill="none" stroke="#000000" stroke-width="1.42" stroke-miterlimit="10" width="14.89" height="23.31"/><path fill="none" stroke="#000000" stroke-width="1.42" stroke-miterlimit="10" d="M48.5 23.46c0 0-0.25-6.84 0-6.84 0.12 0 2.94-3.12 2.94-3.12l3.06 3.13v6.84"/><circle fill="none" stroke="#000000" stroke-width="1.42" stroke-miterlimit="10" cx="38.53" cy="10.69" r="3.75"/><line fill="none" stroke="#000000" stroke-width="1.42" stroke-miterlimit="10" x1="38.53" y1="14.44" x2="38.53" y2="23.46"/></svg>